{
    "accessors" : [
        {
            "bufferView" : 0,
            "componentType" : 5123,
            "count" : 1068,
            "max" : [
                201
            ],
            "min" : [
                0
            ],
            "type" : "SCALAR"
        },
        {
            "bufferView" : 1,
            "componentType" : 5126,
            "count" : 202,
            "max" : [
                0.34633463621139526,
                0.7179687023162842,
                0.15997618436813354
            ],
            "min" : [
                -0.34631824493408203,
                0.11907878518104553,
                -0.15997615456581116
            ],
            "type" : "VEC3"
        },
        {
            "bufferView" : 2,
            "componentType" : 5126,
            "count" : 202,
            "max" : [
                0.9853205680847168,
                0.99981689453125,
                0.9957274198532104
            ],
            "min" : [
                -0.9852595329284668,
                -1.0,
                -0.9957274198532104
            ],
            "type" : "VEC3"
        },
        {
            "bufferView" : 3,
            "componentType" : 5126,
            "count" : 202,
            "max" : [
                1.0,
                0.33648446202278137,
                0.9991418123245239,
                1.0
            ],
            "min" : [
                0.007074662484228611,
                -0.3162299692630768,
                -0.9991417527198792,
                -1.0
            ],
            "type" : "VEC4"
        },
        {
            "bufferView" : 4,
            "componentType" : 5126,
            "count" : 202,
            "max" : [
                0.9588465094566345,
                0.9464289918541908
            ],
            "min" : [
                0.04083986207842827,
                0.051714181900024414
            ],
            "type" : "VEC2"
        }
    ],
    "asset" : {
        "generator" : "Khronos Blender glTF 2.0 exporter",
        "version" : "2.0"
    },
    "bufferViews" : [
        {
            "buffer" : 0,
            "byteLength" : 2136,
            "byteOffset" : 0,
            "target" : 34963
        },
        {
            "buffer" : 0,
            "byteLength" : 2424,
            "byteOffset" : 2136,
            "target" : 34962
        },
        {
            "buffer" : 0,
            "byteLength" : 2424,
            "byteOffset" : 4560,
            "target" : 34962
        },
        {
            "buffer" : 0,
            "byteLength" : 3232,
            "byteOffset" : 6984,
            "target" : 34962
        },
        {
            "buffer" : 0,
            "byteLength" : 1616,
            "byteOffset" : 10216,
            "target" : 34962
        }
    ],
    "buffers" : [
        {
            "byteLength" : 11832,
            "uri" : "love_heart_red.bin"
        }
    ],
    "materials" : [
        {
            "name" : "Material",
            "pbrMetallicRoughness" : {
                "baseColorFactor" : [
                    0.640000066757203,
                    0.024758312475060107,
                    0.17393670341278167,
                    1.0
                ],
                "metallicFactor" : 0.0
            }
        }
    ],
    "meshes" : [
        {
            "name" : "Vert",
            "primitives" : [
                {
                    "attributes" : {
                        "NORMAL" : 2,
                        "POSITION" : 1,
                        "TANGENT" : 3,
                        "TEXCOORD_0" : 4
                    },
                    "indices" : 0,
                    "material" : 0
                }
            ]
        }
    ],
    "nodes" : [
        {
            "mesh" : 0,
            "name" : "Vert"
        }
    ],
    "scene" : 0,
    "scenes" : [
        {
            "name" : "Scene",
            "nodes" : [
                0
            ]
        }
    ]
}
